<svg xmlns="http://www.w3.org/2000/svg" xmlns:xlink="http://www.w3.org/1999/xlink" width="487.411" height="484.674" viewBox="0 0 487.411 484.674">
  <defs>
    <linearGradient id="linear-gradient" x1="0.104" y1="-0.091" x2="1.02" y2="0.977" gradientUnits="objectBoundingBox">
      <stop offset="0" stop-color="#311944"/>
      <stop offset="1" stop-color="#893976"/>
    </linearGradient>
    <linearGradient id="linear-gradient-2" x1="1.695" y1="-0.846" x2="-0.854" y2="1.72" gradientUnits="objectBoundingBox">
      <stop offset="0" stop-color="#aa80f9"/>
      <stop offset="1" stop-color="#6165d7"/>
    </linearGradient>
    <linearGradient id="linear-gradient-3" x1="-0.271" y1="0.007" x2="1.329" y2="1.41" gradientUnits="objectBoundingBox">
      <stop offset="0" stop-color="#ffc444"/>
      <stop offset="1" stop-color="#f36f56"/>
    </linearGradient>
    <linearGradient id="linear-gradient-4" x1="0.935" y1="0.208" x2="0.377" y2="0.603" xlink:href="#linear-gradient-3"/>
    <linearGradient id="linear-gradient-5" x1="0.733" y1="-0.975" x2="0.084" y2="2.663" gradientUnits="objectBoundingBox">
      <stop offset="0" stop-color="#444b8c"/>
      <stop offset="1" stop-color="#26264f"/>
    </linearGradient>
    <linearGradient id="linear-gradient-6" x1="0.502" y1="0.198" x2="0.421" y2="0.604" xlink:href="#linear-gradient-5"/>
    <linearGradient id="linear-gradient-7" x1="0.882" y1="-0.591" x2="0.367" y2="1.018" xlink:href="#linear-gradient-3"/>
    <linearGradient id="linear-gradient-8" x1="0.708" y1="-0.979" x2="0.253" y2="2.424" xlink:href="#linear-gradient-5"/>
    <linearGradient id="linear-gradient-9" x1="1.159" y1="-0.375" x2="0.465" y2="0.527" xlink:href="#linear-gradient-2"/>
    <linearGradient id="linear-gradient-10" x1="0.859" y1="-0.562" x2="0.445" y2="1.101" xlink:href="#linear-gradient-3"/>
    <linearGradient id="linear-gradient-11" x1="-0.175" y1="-2.143" x2="1.07" y2="2.454" xlink:href="#linear-gradient-2"/>
    <linearGradient id="linear-gradient-12" x1="0.504" y1="1.257" x2="0.492" y2="-0.304" xlink:href="#linear-gradient"/>
    <linearGradient id="linear-gradient-13" x1="-10.815" y1="4.086" x2="-11.516" y2="2.558" xlink:href="#linear-gradient-5"/>
    <linearGradient id="linear-gradient-14" x1="1.055" y1="7.523" x2="0.476" y2="0.127" xlink:href="#linear-gradient"/>
    <linearGradient id="linear-gradient-15" x1="0.366" y1="-0.123" x2="0.739" y2="2.441" xlink:href="#linear-gradient-2"/>
    <linearGradient id="linear-gradient-16" x1="0.36" y1="-3.431" x2="0.554" y2="2.416" xlink:href="#linear-gradient-2"/>
    <linearGradient id="linear-gradient-17" x1="-0.173" y1="-2.143" x2="1.071" y2="2.454" xlink:href="#linear-gradient-2"/>
    <linearGradient id="linear-gradient-18" x1="0.282" y1="2.062" x2="0.573" y2="-0.197" xlink:href="#linear-gradient"/>
    <linearGradient id="linear-gradient-19" x1="0.095" y1="1.584" x2="0.597" y2="0.102" xlink:href="#linear-gradient-2"/>
    <clipPath id="clip-path">
      <path id="Path_4126" data-name="Path 4126" d="M1135.209,2494.281a10.162,10.162,0,0,1-5.023,6.743l-75.228,41.4a10.036,10.036,0,0,1-9.091.292l-25.477-11.963,81.394-46.3a23.9,23.9,0,0,1,24.825.708l4.2,2.711A10.14,10.14,0,0,1,1135.209,2494.281Z" transform="translate(-1020.39 -2481.327)" fill="none"/>
    </clipPath>
    <clipPath id="clip-path-2">
      <path id="Path_4132" data-name="Path 4132" d="M2346.968,2159.1v51.261a4.756,4.756,0,0,1-.129,1.879l-28.264,68.981-17.844-3.682,28.322-63.089v-34.563a16.222,16.222,0,0,1,7.276-13.428l10.731-7.289C2347.092,2159.144,2346.968,2159.123,2346.968,2159.1Z" transform="translate(-2300.73 -2159.1)" fill="none"/>
    </clipPath>
    <linearGradient id="linear-gradient-20" x1="0.353" y1="-0.43" x2="0.252" y2="0.825" gradientUnits="objectBoundingBox">
      <stop offset="0" stop-color="#ff9085"/>
      <stop offset="1" stop-color="#fb6fbb"/>
    </linearGradient>
    <linearGradient id="linear-gradient-21" x1="-0.662" y1="0.701" x2="0.586" y2="0.701" xlink:href="#linear-gradient-20"/>
    <clipPath id="clip-path-3">
      <path id="Path_4155" data-name="Path 4155" d="M850.424,626.553A74.3,74.3,0,0,1,766.2,701.469q-2.955-.4-5.869-1.028a74.349,74.349,0,0,1-40.439-121.366,73.33,73.33,0,0,1,12.8-11.678,74.336,74.336,0,0,1,100.618,12.9c1.082,1.318,2.143,2.684,3.147,4.087A73.932,73.932,0,0,1,850.424,626.553Z" transform="translate(-701.725 -553.409)" fill="none"/>
    </clipPath>
    <linearGradient id="linear-gradient-22" x1="-0.23" y1="0.888" x2="0.811" y2="0.888" xlink:href="#linear-gradient"/>
  </defs>
  <g id="Group_2430" data-name="Group 2430" transform="translate(-1032 -297)">
    <path id="Path_4092" data-name="Path 4092" d="M941.653,790.294c-14.2,54.586-54.173,105.142-151.01,131.294-34.993,9.456-75.717,14.1-112.022,11.231-53.432-4.224-109.441-28.345-153.94-55.693-30.806-18.92-43.056-44.457-47.4-73.324-2.687-17.848-2.346-36.969-1.49-56.586,1.288-29.511-3.4-59.229-10.35-87.937-10.691-44.212-1.885-90.588,24.491-128.62s68.053-64.492,115.59-73.383c80.088-14.974,161.335-5.093,161.335-5.093C873.873,463.3,928.039,569.536,941.25,656.01,947.292,695.525,953.605,744.338,941.653,790.294Z" transform="translate(570.99 -151.986)" fill="#f4f7fa"/>
    <path id="Path_4093" data-name="Path 4093" d="M769.866,2796.578c25.741-1.178,50.369-1.734,73.875-2.413,25.453-.732,51-2.972,72.747,3.978,7.768,2.481,7.983,8.83,13.14,13.147,5.615,4.7,13.759,4.531,21.191,4.3,33.439-1.03,141.74-26.14,128.363-5.208-13.338,20.864-35.511,29.033-75.146,28.622-21.545-.224-44.457.934-68.532,1.684-9.344.292-19.149.935-28.782.425-13.462-.712-25.848-5.644-40.018-6.958-41.572-3.858-89.161-7.935-137.819-19.537-8.7-2.073-30.357-5.037-20.9-12.238,8.189-6.243,39.175-4.628,49.147-5.163Q763.534,2796.865,769.866,2796.578Z" transform="translate(369.125 -2086.398)" fill="#d8dee8"/>
    <path id="Path_4094" data-name="Path 4094" d="M2545.941,1344.051s-1.085,2.886-2.972,7.238c-4.36,10.046-13.005,27.89-22.452,36.025-13.545,11.671-58.848-23.573-58.848-23.573l11.058-30.273s39.408,32.722,40.128,32.722c.474-.08,12.568-14.629,17.458-22.407,1.35-2.143,2.152-3.769,2.012-4.441a5.066,5.066,0,0,1-.088-.554,6.7,6.7,0,0,1,2.355-5.9,3.292,3.292,0,0,1,.7-.416c1.794-.764,1.684-4.883,4.371-7.981s9.556,1.136,15.271,7.194S2545.941,1344.051,2545.941,1344.051Z" transform="translate(-1079.902 -873.567)" fill="url(#linear-gradient)"/>
    <path id="Path_4095" data-name="Path 4095" d="M2866.777,1344.052s-1.086,2.886-2.972,7.238l-13.325-5.736s.248-.664.67-1.771c.467-1.224,1.145-3,1.923-4.995.722-1.851,1.539-3.9,2.355-5.9a3.275,3.275,0,0,1,.7-.416c1.794-.764,1.684-4.883,4.371-7.981s9.556,1.136,15.271,7.194S2866.777,1344.052,2866.777,1344.052Z" transform="translate(-1400.738 -873.567)" fill="#d8dee8"/>
    <path id="Path_4096" data-name="Path 4096" d="M2400.218,1302.83a91.287,91.287,0,0,1,23.562,14.96l8.14,6.439s-17.252,27.7-24.054,27.943-16.844-6.073-16.844-6.073Z" transform="translate(-1021.604 -856.556)" fill="url(#linear-gradient-2)"/>
    <path id="Path_4097" data-name="Path 4097" d="M2276.517,774.73c-15.86-14.269-112.738-106.387-134.489-127.076a6.129,6.129,0,0,0-8.558.1h0a7.067,7.067,0,0,0-1.049,8.666l22.811,37.521a75.185,75.185,0,0,0,12.026,15.035l10.282,9.928a75.213,75.213,0,0,0,20.762,14.2l27.43,12.642a13.275,13.275,0,0,1,2.724,1.678l42.5,33.86a2.956,2.956,0,0,0,4.091-.4l1.748-2.042A2.954,2.954,0,0,0,2276.517,774.73Z" transform="translate(-807.37 -314.528)" fill="url(#linear-gradient-3)"/>
    <path id="Path_4098" data-name="Path 4098" d="M2274.16,779.592l-42.483-33.852a13.268,13.268,0,0,0-2.724-1.678l-27.432-12.64a75.206,75.206,0,0,1-20.764-14.206l-10.283-9.927a75.236,75.236,0,0,1-12.027-15.035l-22.811-37.518a7.026,7.026,0,0,1-1.012-3.577,6.09,6.09,0,0,0-1.154.885h0a7.066,7.066,0,0,0-1.049,8.666l22.811,37.521a75.176,75.176,0,0,0,12.027,15.035l10.281,9.928a75.209,75.209,0,0,0,20.762,14.2l27.43,12.642a13.265,13.265,0,0,1,2.724,1.678l42.5,33.86a2.956,2.956,0,0,0,4.091-.4l1.748-2.042a2.956,2.956,0,0,0,.428-3.163,2.953,2.953,0,0,1-3.065-.381Z" transform="translate(-807.369 -318.815)" opacity="0.3" fill="url(#linear-gradient-4)"/>
    <path id="Path_4099" data-name="Path 4099" d="M1954.307,2064.847c-3.958,17.6-12.838,34.6-21.876,50.086-2.865,4.913-5.883,10.1-9.731,14.336q-8.531-1.464-17.058-2.937c-.3-1.713-.568-3.507-.8-5.379-1.275-10.636-1.005-23.684,4.323-36.965,4.505-11.232,13.054-24.682,11.649-29.18-4.607-14.777-59.526-3.273-74.476-29.638a26.86,26.86,0,0,1-2.178-4.986c-3.974-12.313-19.85-4.411-13.224-12.063,6.065-7.012,21.292-29.808,45.472-19.121,20.082,8.886,38.9,19.981,57.42,31.731,7.507,4.768,15.285,9.776,19.185,18.123C1956.813,2046.966,1956.224,2056.317,1954.307,2064.847Z" transform="translate(-558.123 -1420.449)" fill="url(#linear-gradient-5)"/>
    <path id="Path_4100" data-name="Path 4100" d="M2002.962,2207.048c-13.033,16.635-14.82,55.649-14.82,55.649l-3.1-.678c-1.275-10.636-1.005-23.684,4.324-36.965,4.505-11.232,13.054-24.682,11.649-29.18-4.607-14.776-59.526-3.273-74.476-29.638,5.213-3.638,24.406-15.643,36.084-4.381,13.6,13.121,25.512,7.778,35.719,13.121S2015.995,2190.413,2002.962,2207.048Z" transform="translate(-638.327 -1561.514)" opacity="0.3" fill="url(#linear-gradient-6)"/>
    <path id="Path_4101" data-name="Path 4101" d="M2224.356,2735.07s21.31.573,29.3,2.339l-6.788,17.4s15.323,2.963,16.362,13.661-43.072,0-43.072,0Z" transform="translate(-880.615 -2038.403)" fill="url(#linear-gradient-7)"/>
    <path id="Path_4102" data-name="Path 4102" d="M1184.7,1956.158s8.453,24.651,0,35.059-50.083,57.8-70.658,64.046-81.819,48.427-90.434,44.259-22.969-7.291-10.528-15.621,67.946-52.591,80.387-52.591,19.14-76.541,41.63-82.789S1184.7,1956.158,1184.7,1956.158Z" transform="translate(119.449 -1388.03)" fill="url(#linear-gradient-8)"/>
    <path id="Path_4103" data-name="Path 4103" d="M1776.733,1339.85c-14.206,16.8-17.881,34.152-22.757,42.418-2.369,4.038-5.037,5.911-9.344,4.512-13.157-4.257-59.745,16.766-81.614,4.862-16.409-8.93,16.226-74.68,38.124-110.665,7.289-11.978,13.383-20.659,16.084-22.853,10.839-8.813,75.971,3.537,79.632,5.635C1824.48,1279.588,1797.873,1314.848,1776.733,1339.85Z" transform="translate(-417.201 -817.079)" fill="url(#linear-gradient-9)"/>
    <path id="Path_4104" data-name="Path 4104" d="M900.365,2722.23s-49.175,34.518-24.208,35.065,49.7,5.594,48.542,1.8-6.848-11.818-17.308-12.547c0,0,16.643-7.108,15.236-8.741S900.365,2722.23,900.365,2722.23Z" transform="translate(234.256 -2027.808)" fill="url(#linear-gradient-10)"/>
    <path id="Path_4105" data-name="Path 4105" d="M1754.726,1483.523c-11.794,17.2-11.481,18.573-.75,21.278-2.369,4.038-5.037,5.911-9.344,4.512-13.157-4.257-59.745,16.766-81.614,4.862-16.409-8.93,16.226-74.68,38.124-110.665,4.213-.227,8.741.948,13.636,3.8,0,0,27.7,14.31,16.766,38.366S1770.254,1460.86,1754.726,1483.523Z" transform="translate(-417.201 -939.612)" fill="#6b3d95" opacity="0.3"/>
    <path id="Path_4106" data-name="Path 4106" d="M2099.855,1133.79c0,.175-.411,9.568,1.776,9.932a17.921,17.921,0,0,0,4.247-.038,2.474,2.474,0,0,0,2.169-1.962l1.439-6.946Z" transform="translate(-781.317 -717.068)" fill="url(#linear-gradient-11)"/>
    <path id="Path_4107" data-name="Path 4107" d="M2064.19,1184.662c0-2.374,4.22-4.474,10.692-5.759a10.3,10.3,0,0,0,1.909-2.233c2.3-3.671,6.079-9.778,5.467-12.937l9.364-5.044a23.083,23.083,0,0,0,.147,2.614c.418,3.7,1,7.654,2.855,10.935a14.29,14.29,0,0,0,7.7,6.25c7.806,1.213,13.081,3.526,13.081,6.18,0,3.914-11.465,7.088-25.61,7.088-8.642,0-16.278-1.185-20.916-3a7.3,7.3,0,0,1-2.871-1.4,2.252,2.252,0,0,1-.2-.2A3.323,3.323,0,0,1,2064.19,1184.662Z" transform="translate(-751.912 -737.615)" fill="url(#linear-gradient-12)"/>
    <path id="Path_4108" data-name="Path 4108" d="M2103.541,1069.969c-2.608-2.92-3.274-8.544-.944-12.474,2.005-3.381,5.568-4.309,7.692-4.865,6.18-1.61,14.325.07,17.631,5.769,1.958,3.372-.865,11.318-1.292,12.734-.482,1.6-1.573,2.273-2.505,3.568-1.3,1.788-3.336,4.628-6.643,9.364a27.312,27.312,0,0,0-1.834-4.278,23.181,23.181,0,0,0-3.456-4.851C2108.546,1071.184,2106.014,1072.738,2103.541,1069.969Z" transform="translate(-782.426 -649.617)" fill="url(#linear-gradient-13)"/>
    <path id="Path_4109" data-name="Path 4109" d="M2130.859,1140.66s-3.451,7.664-11.687,8.217c-7.373.491-10.051-16.68-5.711-20.99a9.112,9.112,0,0,1,7.138-1.967c1.544.24,2.112.829,4.642,1.168,2.334.313,2.951-.04,3.694.476.93.645,1.732,2.428.768,7.692,1.26-1.68,2.885-2.482,4.127-2.051a2.409,2.409,0,0,1,1.07.874C2136.105,1135.9,2134.626,1138.664,2130.859,1140.66Z" transform="translate(-790.848 -710.496)" fill="url(#linear-gradient-14)"/>
    <path id="Path_4110" data-name="Path 4110" d="M2099.372,1172.733a.364.364,0,1,1-.03-.727l16.36-1.358,6.266-4.556a.364.364,0,1,1,.428.589l-6.348,4.617a.367.367,0,0,1-.183.068l-16.462,1.367Z" transform="translate(-780.631 -743.665)" fill="#d8dee8"/>
    <path id="Path_4111" data-name="Path 4111" d="M2181.276,1201.5a.365.365,0,0,1-.355-.453l2.423-9.729a.365.365,0,1,1,.7.175l-2.418,9.731A.362.362,0,0,1,2181.276,1201.5Z" transform="translate(-848.228 -764.266)" fill="#d8dee8"/>
    <path id="Path_4112" data-name="Path 4112" d="M2141.532,1206.84a.365.365,0,0,1-.364-.332l-.815-9.3a.364.364,0,1,1,.725-.063l.817,9.294a.365.365,0,0,1-.332.4Z" transform="translate(-814.76 -769.077)" fill="#d8dee8"/>
    <path id="Path_4113" data-name="Path 4113" d="M2109.065,1209.663a.366.366,0,0,1-.35-.28l-2.086-8.712a.365.365,0,1,1,.71-.175l2.084,8.71a.363.363,0,0,1-.269.439A.35.35,0,0,1,2109.065,1209.663Z" transform="translate(-786.924 -771.884)" fill="#d8dee8"/>
    <path id="Path_4114" data-name="Path 4114" d="M2111.86,1191.007c-.2,0-.35-.393-.364-.591s.15-.49.35-.5l10.918-.435,6.378-1.923,4.232-10.514a.369.369,0,0,1,.474-.21.362.362,0,0,1,.2.472l-4.3,10.664a.368.368,0,0,1-.234.212l-6.591,1.958c-.031,0-.061.253-.093.255l-10.965.615Z" transform="translate(-790.947 -752.57)" fill="#d8dee8"/>
    <path id="Path_4115" data-name="Path 4115" d="M2104.483,1181.043c-.194,0-.35-.058-.364-.254a.327.327,0,0,1,.35-.336l14.479-.7,7.867-9.11a.364.364,0,0,1,.514-.033.369.369,0,0,1,.038.524l-7.961,9.243c-.066.075-.159.028-.259.033l-14.636.643Z" transform="translate(-784.861 -747.377)" fill="#d8dee8"/>
    <path id="Path_4116" data-name="Path 4116" d="M2208.958,1184.644h-.068a.365.365,0,0,1-.29-.427l2.162-11.624a.365.365,0,1,1,.717.133l-2.165,11.628A.365.365,0,0,1,2208.958,1184.644Z" transform="translate(-871.07 -748.841)" fill="#d8dee8"/>
    <path id="Path_4117" data-name="Path 4117" d="M2120.379,1050.5s2.439-16.434-13.462-17.832c-13.43-1.18-18.965,6.063-18.6,15.794C2115.533,1051.058,2120.379,1050.5,2120.379,1050.5Z" transform="translate(-771.81 -633.518)" fill="url(#linear-gradient-15)"/>
    <path id="Path_4118" data-name="Path 4118" d="M2086.892,1111.147c-.145-.736-14.122-7.484-21.982-3.6s-5.2,5.344,0,4.981S2086.892,1111.147,2086.892,1111.147Z" transform="translate(-748.424 -694.427)" fill="url(#linear-gradient-16)"/>
    <path id="Path_4119" data-name="Path 4119" d="M2216.547,1129.62c0,.184-.409,9.568,1.778,9.932a17.919,17.919,0,0,0,4.247-.038,2.472,2.472,0,0,0,2.17-1.962l1.437-6.946Z" transform="translate(-877.608 -713.627)" fill="url(#linear-gradient-17)"/>
    <path id="Path_4120" data-name="Path 4120" d="M2906.257,1329.3a11.221,11.221,0,0,0,3.287,10.922c5.117,4.661,7.411,3.919,9.6,1.96S2910.745,1328.7,2906.257,1329.3Z" transform="translate(-1446.502 -878.376)" fill="#d8dee8"/>
    <path id="Path_4121" data-name="Path 4121" d="M2064.808,1304.791c-2.171,1.437-6.079,4.687-11.269,8.842-18.531,14.834-53.352,41.128-83.6,36.871-38.729-5.439-87.132-21.57-77.355-40.624s14.011-26.563,28.53-20.892c0,0,47.36,37.614,68.813,31.483,17.693-5.044,45.312-15.57,54.467-19.112a9.062,9.062,0,0,1,4.448-.225s-1.47-14.011,5.673-14.995,6.561-11.215,9.855-6.8S2074.736,1298.232,2064.808,1304.791Z" transform="translate(-609.251 -836.262)" fill="url(#linear-gradient-18)"/>
    <path id="Path_4122" data-name="Path 4122" d="M1893.224,1286.056s-22.654-31.1-42.7-14.093-22.477,39.85-1.094,52.972,29.341,13.607,29.341,13.607l22.505-45.923Z" transform="translate(-562.303 -826.888)" fill="url(#linear-gradient-19)"/>
    <path id="Path_4123" data-name="Path 4123" d="M2787.409,1302.61c-2.172,1.437-6.079,4.687-11.27,8.843l-9.14-12.275c1.954-.759,3.07-1.2,3.07-1.2s-1.262-15.156,5.881-16.14,8.886-9.388,12.182-4.979S2797.338,1296.05,2787.409,1302.61Z" transform="translate(-1331.854 -834.081)" fill="#fff"/>
    <path id="Path_4124" data-name="Path 4124" d="M1098.934,2450.377l-4.2-2.713a23.9,23.9,0,0,0-24.825-.7l-86.373,50.215L1014,2509.592a10.023,10.023,0,0,0,9.091-.293l75.226-41.4a10.231,10.231,0,0,0,.612-17.518Z" transform="translate(139.813 -1798.077)" fill="#d8dee8"/>
    <path id="Path_4125" data-name="Path 4125" d="M1115.555,2471.784a10.227,10.227,0,0,1-5.255,8.581l-75.228,41.4a10.038,10.038,0,0,1-9.091.292L1000.5,2510.1l-4.213-1.976,85.607-48.692a23.9,23.9,0,0,1,24.825.7l4.2,2.712A10.21,10.21,0,0,1,1115.555,2471.784Z" transform="translate(129.291 -1808.362)" fill="#fff"/>
    <g id="Group_2323" data-name="Group 2323" transform="translate(1129.794 652.306)" clip-path="url(#clip-path)">
      <rect id="Rectangle_144" data-name="Rectangle 144" width="112.396" height="2.187" transform="matrix(0.859, -0.512, 0.512, 0.859, 5.915, 52.562)" fill="#abc"/>
      <rect id="Rectangle_145" data-name="Rectangle 145" width="112.396" height="2.187" transform="matrix(0.859, -0.512, 0.512, 0.859, 13.933, 58.395)" fill="#abc"/>
      <rect id="Rectangle_146" data-name="Rectangle 146" width="112.396" height="2.187" transform="matrix(0.859, -0.512, 0.512, 0.859, 19.037, 65.687)" fill="#abc"/>
    </g>
    <path id="Path_4127" data-name="Path 4127" d="M1312.256,2522.785l-21.951-33.533a1.808,1.808,0,0,0-2.5-.524l-10.385,6.8a1.813,1.813,0,0,0-.524,2.505l21.944,33.533a1.808,1.808,0,0,0,2.5.524l10.391-6.8A1.81,1.81,0,0,0,1312.256,2522.785Z" transform="translate(-102.012 -1834.884)" fill="#d8dee8"/>
    <rect id="Rectangle_147" data-name="Rectangle 147" width="2.187" height="43.693" transform="translate(1182.432 656.042) rotate(-33.2)" fill="#abc"/>
    <rect id="Rectangle_148" data-name="Rectangle 148" width="2.187" height="43.693" transform="translate(1177.551 659.234) rotate(-33.2)" fill="#abc"/>
    <path id="Path_4128" data-name="Path 4128" d="M2251.543,2614.957a3.189,3.189,0,0,0-3.995,2.1l-.923,2.958a3.189,3.189,0,0,0,2.1,3.993l19.231,6,2.822-9.045Z" transform="translate(-902.334 -1939.169)" fill="#d8dee8"/>
    <path id="Path_4129" data-name="Path 4129" d="M2323.038,2142.915v51.712a4.756,4.756,0,0,1-.129,1.879l-28.264,68.981-17.755-3.682-5.159-1.079,29.21-64.93v-34.563a16.127,16.127,0,0,1,7.18-13.428l10.923-7.288a2.471,2.471,0,0,1,2.715-.147A2.685,2.685,0,0,1,2323.038,2142.915Z" transform="translate(-923.169 -1547.393)" fill="#fff"/>
    <g id="Group_2324" data-name="Group 2324" transform="translate(1353.631 595.973)" clip-path="url(#clip-path-2)">
      <path id="Path_4130" data-name="Path 4130" d="M2331.334,2310.977l-2-.874,29.063-66.631a12.081,12.081,0,0,0,.96-5.86l-3.726-42.792,2.178-.189,3.725,42.791a14.263,14.263,0,0,1-1.14,6.925Z" transform="translate(-2324.33 -2188.418)" fill="#abc"/>
      <path id="Path_4131" data-name="Path 4131" d="M2377.2,2286.535l-2.005-.874,29.1-66.707a12.075,12.075,0,0,0,.97-5.706l-3.563-48.077,2.182-.161,3.563,48.077a14.3,14.3,0,0,1-1.149,6.741Z" transform="translate(-2362.172 -2163.977)" fill="#abc"/>
    </g>
    <path id="Path_4133" data-name="Path 4133" d="M2354.673,2394.4l-39.7-6.039a1.809,1.809,0,0,0-1.96,1.135l-4.934,12.747a1.81,1.81,0,0,0,1.453,2.448l42.846,5.607a1.858,1.858,0,0,0,2.081-1.573l1.771-12.215A1.86,1.86,0,0,0,2354.673,2394.4Z" transform="translate(-953.066 -1752.291)" fill="#d8dee8"/>
    <path id="Path_4134" data-name="Path 4134" d="M2371.828,2415.494l-44.327-6.418.827-2.136,43.8,6.465Z" transform="translate(-969.189 -1767.639)" fill="#abc"/>
    <path id="Path_4135" data-name="Path 4135" d="M2360.129,2448.715l-45.789-6.273.879-2.273,45.229,6.331Z" transform="translate(-958.33 -1795.059)" fill="#abc"/>
    <path id="Path_4136" data-name="Path 4136" d="M1127.872,1428.584a384.291,384.291,0,0,1-54.682,42.037c-63.9,40.443-164.314,76.142-274.776,10.647,0,0-32.768-29.3,14.7-19.376-3.439-7.269-11.379-14.212-16.71-20.042-16.731-18.3-34.367-35.49-45.955-57.726-6.682-12.834-8.715-24.56,2.273-32.061a31.886,31.886,0,0,1,6.516-3.351c14.252-5.558,28.147-.554,38.4,10.206,2.893,3.025,5.752,6.091,8.6,9.168,19.406,21,38.158,42.755,61.857,59.1,25.233,17.4,54.217,28.8,84.079,35.3,59.719,12.981,122.5-5.437,175.113-34.713a.5.5,0,0,1,.654.147A.5.5,0,0,1,1127.872,1428.584Z" transform="translate(336.684 -892.526)" fill="#d8dee8" opacity="0.6"/>
    <path id="Path_4137" data-name="Path 4137" d="M1073.19,1497.249c-63.9,40.443-164.314,76.142-274.776,10.647,0,0-32.768-29.3,14.7-19.376-3.439-7.269-11.379-14.212-16.71-20.042-16.731-18.3-34.367-35.49-45.955-57.726-6.682-12.834-8.715-24.559,2.273-32.061,12.126,23.24,37.238,65.362,66.308,79.88,40.977,20.455,77.67,52.6,54.829,56.514s9.469,32.628,97.364,14.913C1009.44,1522.287,1045.1,1509.374,1073.19,1497.249Z" transform="translate(336.684 -919.154)" fill="#fff" opacity="0.8"/>
    <path id="Path_4138" data-name="Path 4138" d="M850.424,626.553A74.3,74.3,0,0,1,766.2,701.469q-2.955-.4-5.869-1.028a74.349,74.349,0,0,1-40.439-121.366,73.33,73.33,0,0,1,12.8-11.678,74.336,74.336,0,0,1,100.618,12.9c1.082,1.318,2.143,2.684,3.147,4.087A73.932,73.932,0,0,1,850.424,626.553Z" transform="translate(372.357 -238.153)" fill="url(#linear-gradient-20)"/>
    <g id="Group_2325" data-name="Group 2325" transform="translate(1138.707 324.48)" opacity="0.7">
      <path id="Path_4139" data-name="Path 4139" d="M1155.593,670.576a74.3,74.3,0,0,1-84.223,74.916c18.738-18.252,24.964-34.672,26.128-48.172,2.173-25.175-13.184-40.995-5.462-63.326,4.04-11.677,12.874-20.745,24.166-27.825a73.952,73.952,0,0,1,22.269,18.152c1.082,1.316,2.144,2.682,3.147,4.086A73.933,73.933,0,0,1,1155.593,670.576Z" transform="translate(-1071.37 -606.17)" fill="url(#linear-gradient-21)"/>
    </g>
    <g id="Group_2327" data-name="Group 2327" transform="translate(1074.083 315.256)" clip-path="url(#clip-path-3)">
      <path id="Path_4140" data-name="Path 4140" d="M762.823,739.591a612.54,612.54,0,0,0-175.747,53.026q-.4-1.154-.8-2.306A550.759,550.759,0,0,1,762.211,737.24Q762.519,738.411,762.823,739.591Z" transform="translate(-606.463 -705.102)" fill="#fff"/>
      <path id="Path_4141" data-name="Path 4141" d="M841.452,982.692a539.886,539.886,0,0,1-172.445,52.021l-.8-2.306A604.573,604.573,0,0,0,840.84,980.33C841.043,981.117,841.251,981.905,841.452,982.692Z" transform="translate(-674.069 -905.693)" fill="#fff"/>
      <g id="Group_2326" data-name="Group 2326" transform="translate(-13.02 53.383)" opacity="0.5">
        <path id="Path_4142" data-name="Path 4142" d="M802.143,861.122c-57.125,17.685-116.723,35.664-174.1,52.518q-.4-1.152-.8-2.306c57.125-17.9,116.784-35.9,174.279-52.574Z" transform="translate(-627.25 -858.76)" fill="url(#linear-gradient-22)"/>
      </g>
      <path id="Path_4143" data-name="Path 4143" d="M601.568,1081.023q-1.851.734-3.7,1.477c-.851.35-1.717.108-1.932-.525a1.614,1.614,0,0,1,1.136-1.787q1.837-.776,3.684-1.545a1.4,1.4,0,0,1,1.948.563A1.6,1.6,0,0,1,601.568,1081.023Z" transform="translate(-614.39 -986.688)" fill="#fff"/>
      <path id="Path_4144" data-name="Path 4144" d="M817.456,796.808l-1.951.421a1.607,1.607,0,0,1-1.967-.916c-.189-.7.392-1.421,1.3-1.6l1.962-.393a1.63,1.63,0,0,1,1.96.909C818.934,795.906,818.355,796.614,817.456,796.808Zm-9.761,2.154q-3.906.874-7.813,1.8a1.637,1.637,0,0,1-2.007-.993,1.471,1.471,0,0,1,1.255-1.738q3.925-.874,7.853-1.7a1.646,1.646,0,0,1,1.988.96A1.463,1.463,0,0,1,807.7,798.962Zm-15.626,3.659q-3.907.949-7.815,1.923a1.659,1.659,0,0,1-2.04-1.049,1.525,1.525,0,0,1,1.224-1.85q3.92-.944,7.846-1.851a1.665,1.665,0,0,1,2.024,1.024A1.527,1.527,0,0,1,792.07,802.621Zm-15.626,3.92q-3.906,1.012-7.8,2.054a1.671,1.671,0,0,1-2.065-1.075,1.576,1.576,0,0,1,1.192-1.937q3.911-1.021,7.829-2a1.679,1.679,0,0,1,2.054,1.066A1.563,1.563,0,0,1,776.444,806.54Zm-15.6,4.171q-3.9,1.075-7.787,2.178a1.671,1.671,0,0,1-2.079-1.08,1.624,1.624,0,0,1,1.168-2q3.9-1.091,7.8-2.149a1.682,1.682,0,0,1,2.073,1.08,1.607,1.607,0,0,1-1.178,1.972Zm-15.56,4.42q-3.892,1.126-7.761,2.3a1.622,1.622,0,1,1-.935-3.1q3.881-1.168,7.769-2.3a1.666,1.666,0,0,1,2.082,1.079,1.643,1.643,0,0,1-1.157,2.021Zm-15.5,4.659q-3.867,1.187-7.722,2.411a1.628,1.628,0,0,1-2.079-1.024,1.677,1.677,0,0,1,1.133-2.054q3.855-1.234,7.724-2.437a1.642,1.642,0,0,1,2.084,1.049,1.664,1.664,0,0,1-1.142,2.056Zm-15.42,4.9q-3.846,1.25-7.673,2.533a1.593,1.593,0,0,1-2.065-.963,1.675,1.675,0,0,1,1.124-2.042q3.824-1.313,7.67-2.577a1.608,1.608,0,0,1,2.073,1,1.67,1.67,0,0,1-1.131,2.049Zm-15.32,5.124q-3.815,1.309-7.617,2.645a1.545,1.545,0,0,1-2.042-.874,1.675,1.675,0,0,1,1.121-2.007q3.8-1.374,7.6-2.713a1.564,1.564,0,0,1,2.058.925,1.669,1.669,0,0,1-1.126,2.024Zm-15.21,5.348q-3.783,1.364-7.551,2.755a1.49,1.49,0,0,1-2.01-.768,1.657,1.657,0,0,1,1.122-1.948q3.755-1.439,7.531-2.846a1.5,1.5,0,0,1,2.03.827,1.649,1.649,0,0,1-1.115,1.979Zm-15.063,5.565q-3.746,1.418-7.474,2.864a1.443,1.443,0,0,1-1.97-.635,1.636,1.636,0,0,1,1.129-1.865q3.712-1.505,7.448-2.972a1.455,1.455,0,0,1,1.993.7,1.625,1.625,0,0,1-1.119,1.909Z" transform="translate(-666.693 -752.168)" fill="#fff"/>
      <path id="Path_4145" data-name="Path 4145" d="M1580.955,788.016q-1.947.4-3.9.816a1.6,1.6,0,0,1-1.949-.874c-.18-.671.411-1.371,1.313-1.544q1.962-.381,3.923-.752a1.609,1.609,0,0,1,1.935.86C1582.445,787.167,1581.854,787.829,1580.955,788.016Z" transform="translate(-1422.391 -745.025)" fill="#fff"/>
      <path id="Path_4146" data-name="Path 4146" d="M612.45,1113.754q-1.872.656-3.738,1.315a1.473,1.473,0,0,1-1.949-.589c-.219-.626.3-1.4,1.152-1.717q1.858-.7,3.722-1.383a1.454,1.454,0,0,1,1.963.628A1.515,1.515,0,0,1,612.45,1113.754Z" transform="translate(-623.324 -1013.724)" fill="#fff"/>
      <path id="Path_4147" data-name="Path 4147" d="M828.535,830.894l-1.923.495a1.536,1.536,0,0,1-1.944-.858,1.466,1.466,0,0,1,1.273-1.661l1.935-.463a1.556,1.556,0,0,1,1.937.846A1.5,1.5,0,0,1,828.535,830.894Zm-9.633,2.495q-3.846,1.009-7.719,2.038a1.575,1.575,0,0,1-1.99-.946,1.526,1.526,0,0,1,1.238-1.785q3.881-.981,7.759-1.939a1.576,1.576,0,0,1,1.967.907A1.518,1.518,0,0,1,818.9,833.389ZM803.454,837.5q-3.867,1.049-7.738,2.11a1.613,1.613,0,0,1-2.026-1.01,1.564,1.564,0,0,1,1.206-1.885q3.883-1.028,7.769-2.035a1.609,1.609,0,0,1,2.009.983A1.562,1.562,0,0,1,803.454,837.5Zm-15.481,4.257q-3.874,1.08-7.747,2.18a1.638,1.638,0,0,1-2.052-1.049,1.607,1.607,0,0,1,1.18-1.96q3.885-1.075,7.771-2.128a1.638,1.638,0,0,1,2.04,1.035A1.6,1.6,0,0,1,787.973,841.759Zm-15.493,4.4q-3.872,1.117-7.745,2.248a1.652,1.652,0,0,1-2.07-1.072,1.634,1.634,0,0,1,1.159-2.01q3.881-1.122,7.762-2.22a1.654,1.654,0,0,1,2.063,1.066,1.628,1.628,0,0,1-1.17,1.988ZM757,850.683q-3.867,1.148-7.734,2.313a1.622,1.622,0,1,1-.935-3.1q3.869-1.164,7.745-2.308a1.619,1.619,0,1,1,.925,3.1Zm-15.458,4.656q-3.864,1.178-7.715,2.372a1.64,1.64,0,0,1-2.077-1.039,1.657,1.657,0,0,1,1.133-2.04q3.846-1.206,7.717-2.392a1.621,1.621,0,1,1,.942,3.1Zm-15.423,4.768q-3.846,1.208-7.692,2.432a1.62,1.62,0,0,1-2.068-.986,1.651,1.651,0,0,1,1.128-2.019q3.85-1.238,7.7-2.467a1.626,1.626,0,0,1,2.075,1.018A1.649,1.649,0,0,1,726.123,860.106ZM710.775,865q-3.827,1.238-7.643,2.488a1.587,1.587,0,0,1-2.049-.913,1.63,1.63,0,0,1,1.128-1.972q3.81-1.288,7.631-2.554A1.594,1.594,0,0,1,711.9,863,1.632,1.632,0,0,1,710.775,865Zm-15.264,5q-3.8,1.261-7.594,2.539a1.543,1.543,0,0,1-2.021-.815,1.6,1.6,0,0,1,1.133-1.9q3.78-1.323,7.575-2.622a1.547,1.547,0,0,1,2.038.874,1.588,1.588,0,0,1-1.131,1.928Zm-15.161,5.1q-3.776,1.29-7.535,2.589a1.5,1.5,0,0,1-1.982-.7,1.554,1.554,0,0,1,1.142-1.806q3.745-1.36,7.517-2.7a1.5,1.5,0,0,1,2,.759,1.574,1.574,0,0,1-1.145,1.864Z" transform="translate(-676.187 -780.282)" fill="#fff"/>
      <path id="Path_4148" data-name="Path 4148" d="M1589.741,820.319l-3.846.972a1.508,1.508,0,0,1-1.923-.818c-.175-.678.4-1.4,1.288-1.608l3.867-.907a1.529,1.529,0,0,1,1.911.794C1591.2,819.394,1590.624,820.1,1589.741,820.319Z" transform="translate(-1429.706 -771.659)" fill="#fff"/>
      <path id="Path_4149" data-name="Path 4149" d="M638.749,1192.787q-1.923.467-3.83.925a1.667,1.667,0,0,1-1.991-.757c-.22-.628.318-1.32,1.194-1.549l3.815-.991a1.627,1.627,0,0,1,2,.785C640.162,1191.866,639.63,1192.576,638.749,1192.787Z" transform="translate(-644.914 -1078.991)" fill="#fff"/>
      <path id="Path_4150" data-name="Path 4150" d="M855.187,913.207l-1.858.668a1.366,1.366,0,0,1-1.892-.717,1.634,1.634,0,0,1,1.224-1.8l1.871-.638a1.375,1.375,0,0,1,1.883.7A1.659,1.659,0,0,1,855.187,913.207Zm-9.32,3.322q-3.736,1.316-7.493,2.622a1.437,1.437,0,0,1-1.944-.834,1.649,1.649,0,0,1,1.192-1.9q3.774-1.257,7.533-2.519a1.425,1.425,0,0,1,1.923.776,1.663,1.663,0,0,1-1.208,1.85Zm-15.018,5.206q-3.768,1.285-7.552,2.554a1.506,1.506,0,0,1-1.99-.928,1.665,1.665,0,0,1,1.17-1.969q3.8-1.224,7.586-2.477a1.487,1.487,0,0,1,1.967.874,1.686,1.686,0,0,1-1.177,1.944Zm-15.131,5.07q-3.8,1.253-7.6,2.486a1.561,1.561,0,0,1-2.025-1,1.673,1.673,0,0,1,1.152-2.016q3.818-1.212,7.628-2.434a1.545,1.545,0,0,1,2.009.965,1.68,1.68,0,0,1-1.157,2Zm-15.227,4.937q-3.817,1.224-7.642,2.414a1.61,1.61,0,0,1-2.052-1.049,1.666,1.666,0,0,1,1.142-2.039q3.834-1.185,7.659-2.385a1.589,1.589,0,0,1,2.039,1.023,1.677,1.677,0,0,1-1.142,2.037Zm-15.3,4.794q-3.834,1.18-7.673,2.341a1.622,1.622,0,1,1-.935-3.1q3.846-1.163,7.684-2.336a1.629,1.629,0,0,1,2.061,1.059,1.664,1.664,0,0,1-1.133,2.042Zm-15.358,4.643q-3.846,1.143-7.692,2.273a1.671,1.671,0,0,1-2.077-1.07,1.615,1.615,0,0,1,1.133-2.009q3.846-1.133,7.692-2.283a1.656,1.656,0,0,1,2.073,1.072,1.633,1.633,0,0,1-1.126,2.019Zm-15.4,4.49q-3.846,1.1-7.706,2.184a1.682,1.682,0,0,1-2.077-1.049,1.575,1.575,0,0,1,1.136-1.958q3.846-1.107,7.692-2.227a1.67,1.67,0,0,1,2.079,1.061,1.6,1.6,0,0,1-1.121,1.991ZM739.017,950q-3.846,1.063-7.708,2.1a1.685,1.685,0,0,1-2.066-1,1.521,1.521,0,0,1,1.143-1.883q3.846-1.075,7.692-2.168a1.67,1.67,0,0,1,2.072,1.026A1.545,1.545,0,0,1,739.02,950ZM723.6,954.157q-3.846,1.019-7.7,2.016a1.675,1.675,0,0,1-2.047-.932,1.462,1.462,0,0,1,1.157-1.783l7.684-2.1a1.66,1.66,0,0,1,2.058.969,1.473,1.473,0,0,1-1.147,1.83Zm-15.4,3.99q-3.846.975-7.692,1.923a1.665,1.665,0,0,1-2.016-.841,1.392,1.392,0,0,1,1.175-1.657q3.825-1.012,7.659-2.042a1.649,1.649,0,0,1,2.033.888,1.411,1.411,0,0,1-1.156,1.731Z" transform="translate(-699.019 -848.161)" fill="#fff"/>
      <path id="Path_4151" data-name="Path 4151" d="M1610.979,898.393q-1.85.677-3.7,1.348a1.34,1.34,0,0,1-1.869-.666,1.626,1.626,0,0,1,1.224-1.76q1.867-.64,3.727-1.283c.858-.294,1.687-.012,1.852.631A1.652,1.652,0,0,1,1610.979,898.393Z" transform="translate(-1447.393 -836.036)" fill="#fff"/>
      <path id="Path_4152" data-name="Path 4152" d="M649.638,1225.465q-1.935.386-3.869.762a1.745,1.745,0,0,1-2.007-.827c-.219-.628.325-1.289,1.211-1.479q1.923-.412,3.846-.83a1.707,1.707,0,0,1,2.014.85C651.061,1224.6,650.529,1225.288,649.638,1225.465Z" transform="translate(-653.856 -1105.971)" fill="#fff"/>
      <path id="Path_4153" data-name="Path 4153" d="M866.3,947.254l-1.832.738a1.3,1.3,0,0,1-1.869-.657,1.71,1.71,0,0,1,1.2-1.86l1.844-.71c.85-.325,1.682-.042,1.86.638A1.745,1.745,0,0,1,866.3,947.254Zm-9.191,3.659q-3.691,1.444-7.4,2.86a1.384,1.384,0,0,1-1.923-.787,1.717,1.717,0,0,1,1.175-1.944q3.726-1.369,7.437-2.76a1.359,1.359,0,0,1,1.9.724A1.738,1.738,0,0,1,857.112,950.913Zm-14.839,5.659q-3.729,1.385-7.476,2.738a1.461,1.461,0,0,1-1.974-.893,1.714,1.714,0,0,1,1.154-2q3.762-1.316,7.509-2.661a1.432,1.432,0,0,1,1.949.841A1.734,1.734,0,0,1,842.273,956.572Zm-14.986,5.42q-3.766,1.322-7.544,2.612a1.531,1.531,0,0,1-2.014-.974,1.7,1.7,0,0,1,1.142-2.038q3.788-1.266,7.568-2.559a1.5,1.5,0,0,1,1.995.934,1.717,1.717,0,0,1-1.147,2.019Zm-15.117,5.161q-3.8,1.259-7.6,2.484a1.593,1.593,0,0,1-2.044-1.035,1.676,1.676,0,0,1,1.133-2.047q3.817-1.215,7.619-2.448a1.573,1.573,0,0,1,2.028,1.005,1.7,1.7,0,0,1-1.135,2.033Zm-15.227,4.9q-3.818,1.192-7.649,2.353a1.621,1.621,0,1,1-.935-3.1q3.834-1.161,7.659-2.348A1.617,1.617,0,0,1,798.072,970a1.666,1.666,0,0,1-1.129,2.049Zm-15.318,4.64q-3.846,1.128-7.692,2.219a1.682,1.682,0,0,1-2.077-1.082,1.6,1.6,0,0,1,1.131-2q3.846-1.1,7.692-2.238a1.661,1.661,0,0,1,2.072,1.077,1.628,1.628,0,0,1-1.126,2.021Zm-15.385,4.371q-3.855,1.059-7.717,2.082a1.711,1.711,0,0,1-2.079-1.072,1.534,1.534,0,0,1,1.138-1.923q3.858-1.049,7.712-2.126a1.689,1.689,0,0,1,2.079,1.079,1.574,1.574,0,0,1-1.138,1.96Zm-15.444,4.1q-3.865.988-7.736,1.942a1.73,1.73,0,0,1-2.072-1.038,1.481,1.481,0,0,1,1.15-1.846q3.862-.988,7.724-2.009a1.705,1.705,0,0,1,2.077,1.049,1.518,1.518,0,0,1-1.149,1.9Zm-15.477,3.813q-3.872.918-7.747,1.8a1.74,1.74,0,0,1-2.056-.983,1.406,1.406,0,0,1,1.168-1.734q3.865-.928,7.727-1.89a1.713,1.713,0,0,1,2.065,1.01,1.437,1.437,0,0,1-1.163,1.794ZM719.825,992.5q-3.874.844-7.745,1.654a1.74,1.74,0,0,1-2.031-.9c-.229-.684.3-1.4,1.191-1.6q3.857-.874,7.72-1.768a1.709,1.709,0,0,1,2.044.941,1.361,1.361,0,0,1-1.184,1.671Z" transform="translate(-708.549 -876.234)" fill="#fff"/>
      <path id="Path_4154" data-name="Path 4154" d="M1619.766,930.676q-1.82.755-3.645,1.5c-.839.35-1.664.075-1.844-.6a1.706,1.706,0,0,1,1.208-1.823q1.837-.717,3.671-1.439c.843-.33,1.659-.079,1.827.563A1.75,1.75,0,0,1,1619.766,930.676Z" transform="translate(-1454.71 -862.651)" fill="#fff"/>
    </g>
  </g>
</svg>
